<svg xmlns="http://www.w3.org/2000/svg" xmlns:xlink="http://www.w3.org/1999/xlink" width="500" zoomAndPan="magnify" viewBox="0 0 375 187.499995" height="250" preserveAspectRatio="xMidYMid meet" version="1.0"><defs><g/></defs><path fill="#c3ddcd" d="M 106.835938 50.253906 C 107.242188 50.238281 107.644531 50.234375 108.050781 50.234375 L 108.4375 50.234375 C 108.875 50.234375 109.308594 50.234375 109.742188 50.234375 L 110.671875 50.234375 C 111.519531 50.234375 112.363281 50.234375 113.207031 50.234375 C 114.09375 50.234375 114.976562 50.234375 115.863281 50.234375 C 117.347656 50.234375 118.835938 50.234375 120.324219 50.234375 C 122.039062 50.234375 123.757812 50.234375 125.472656 50.234375 C 126.949219 50.234375 128.421875 50.234375 129.894531 50.234375 C 130.777344 50.234375 131.65625 50.234375 132.539062 50.234375 C 133.367188 50.234375 134.195312 50.234375 135.023438 50.234375 C 135.328125 50.234375 135.632812 50.234375 135.9375 50.234375 C 139.917969 50.230469 139.917969 50.230469 140.664062 50.527344 L 140.917969 50.6875 C 141.085938 51.035156 141.085938 51.035156 141.222656 51.480469 L 141.378906 51.984375 L 141.542969 52.539062 C 141.601562 52.730469 141.664062 52.921875 141.722656 53.113281 C 141.847656 53.519531 141.972656 53.929688 142.09375 54.335938 C 142.289062 54.976562 142.484375 55.617188 142.679688 56.253906 C 142.878906 56.894531 143.074219 57.535156 143.269531 58.175781 C 143.753906 59.753906 144.246094 61.328125 144.746094 62.902344 C 144.933594 63.488281 145.121094 64.070312 145.308594 64.65625 L 145.410156 64.984375 C 145.738281 66.023438 146.066406 67.066406 146.386719 68.109375 C 146.808594 69.476562 147.238281 70.839844 147.679688 72.199219 C 148.417969 74.464844 149.128906 76.738281 149.835938 79.015625 C 150.332031 80.617188 150.839844 82.21875 151.351562 83.820312 C 151.859375 85.402344 152.359375 86.984375 152.855469 88.566406 C 153.613281 90.984375 154.375 93.398438 155.15625 95.804688 C 155.863281 97.992188 156.546875 100.183594 157.230469 102.375 L 157.378906 102.847656 C 157.46875 103.136719 157.558594 103.429688 157.652344 103.71875 C 157.921875 104.582031 158.203125 105.4375 158.496094 106.292969 C 158.648438 106.785156 158.691406 107.171875 158.613281 107.683594 C 157.914062 109.054688 156.785156 110.222656 155.710938 111.3125 L 155.375 111.652344 C 152.699219 114.210938 149.160156 115.65625 145.625 116.558594 C 145.40625 116.609375 145.1875 116.664062 144.972656 116.714844 L 144.691406 116.78125 C 142.359375 117.289062 139.988281 117.296875 137.613281 117.289062 C 137.273438 117.289062 136.933594 117.289062 136.597656 117.289062 C 135.683594 117.289062 134.769531 117.289062 133.859375 117.285156 C 133 117.285156 132.140625 117.285156 131.28125 117.285156 C 129.582031 117.285156 127.882812 117.28125 126.183594 117.277344 C 124.53125 117.277344 122.882812 117.273438 121.234375 117.273438 L 119.390625 117.273438 C 115.15625 117.269531 110.925781 117.261719 106.691406 117.257812 C 106.683594 107.742188 106.679688 98.222656 106.683594 88.699219 L 106.683594 88.398438 C 106.683594 85.15625 106.683594 81.914062 106.679688 78.671875 C 106.679688 75.246094 106.679688 71.824219 106.679688 68.398438 C 106.679688 66.347656 106.679688 64.292969 106.675781 62.242188 C 106.675781 60.835938 106.675781 59.429688 106.675781 58.023438 C 106.675781 57.214844 106.675781 56.402344 106.675781 55.589844 C 106.675781 54.847656 106.675781 54.105469 106.675781 53.363281 C 106.675781 53.09375 106.675781 52.824219 106.675781 52.554688 C 106.671875 52.1875 106.675781 51.824219 106.675781 51.460938 L 106.671875 51.136719 C 106.675781 50.890625 106.683594 50.644531 106.691406 50.398438 Z M 121.921875 62.289062 L 121.628906 62.582031 C 121.585938 62.855469 121.585938 62.855469 121.59375 63.175781 L 121.59375 64.40625 C 121.59375 64.882812 121.59375 65.363281 121.597656 65.839844 L 121.597656 66.832031 C 121.597656 67.527344 121.597656 68.222656 121.601562 68.914062 C 121.601562 69.808594 121.605469 70.699219 121.605469 71.589844 C 121.605469 72.273438 121.605469 72.957031 121.605469 73.640625 L 121.605469 74.628906 C 121.605469 75.085938 121.609375 75.546875 121.609375 76.003906 L 121.609375 76.421875 C 121.609375 76.738281 121.621094 77.054688 121.628906 77.375 L 121.777344 77.519531 C 122.222656 77.535156 122.667969 77.542969 123.113281 77.542969 L 123.539062 77.546875 C 124.007812 77.550781 124.476562 77.550781 124.945312 77.554688 L 125.429688 77.554688 C 126.277344 77.558594 127.128906 77.558594 127.980469 77.5625 C 128.851562 77.5625 129.726562 77.566406 130.597656 77.574219 C 131.273438 77.578125 131.949219 77.578125 132.625 77.578125 C 132.945312 77.582031 133.265625 77.582031 133.589844 77.585938 C 135.84375 77.601562 137.824219 77.480469 139.886719 76.484375 C 140.960938 75.859375 141.828125 75.101562 142.496094 74.042969 C 143.296875 72.542969 143.460938 71.125 143.421875 69.445312 C 143.359375 68.054688 143.066406 66.757812 142.347656 65.558594 C 141.574219 64.496094 140.570312 63.753906 139.386719 63.203125 C 137.628906 62.542969 135.78125 62.269531 133.910156 62.269531 L 133.519531 62.269531 C 133.09375 62.265625 132.667969 62.265625 132.242188 62.265625 L 131.351562 62.265625 C 130.730469 62.265625 130.109375 62.265625 129.492188 62.265625 C 128.695312 62.265625 127.898438 62.261719 127.101562 62.257812 C 126.492188 62.257812 125.878906 62.257812 125.269531 62.257812 C 124.972656 62.257812 124.679688 62.257812 124.386719 62.253906 C 123.976562 62.253906 123.570312 62.253906 123.160156 62.253906 C 123.039062 62.253906 122.917969 62.253906 122.789062 62.253906 C 122.5 62.253906 122.210938 62.269531 121.921875 62.289062 M 121.777344 89.121094 C 121.605469 89.460938 121.613281 89.65625 121.613281 90.035156 L 121.609375 90.429688 L 121.613281 90.863281 L 121.609375 91.320312 C 121.609375 91.824219 121.609375 92.324219 121.609375 92.824219 C 121.609375 93.171875 121.609375 93.519531 121.609375 93.863281 C 121.609375 94.59375 121.609375 95.320312 121.613281 96.046875 C 121.613281 96.980469 121.613281 97.917969 121.609375 98.851562 C 121.609375 99.566406 121.609375 100.285156 121.609375 101 C 121.609375 101.34375 121.609375 101.6875 121.609375 102.035156 C 121.609375 102.515625 121.609375 102.996094 121.613281 103.476562 L 121.609375 103.910156 L 121.613281 104.308594 L 121.613281 104.652344 C 121.613281 104.941406 121.613281 104.941406 121.777344 105.21875 C 123.773438 105.230469 125.773438 105.238281 127.773438 105.242188 C 128.703125 105.246094 129.632812 105.246094 130.5625 105.253906 C 131.457031 105.257812 132.355469 105.257812 133.253906 105.261719 C 133.59375 105.261719 133.9375 105.261719 134.277344 105.265625 C 136.8125 105.28125 139.34375 105.28125 141.644531 104.058594 C 142.78125 103.390625 143.679688 102.609375 144.355469 101.46875 C 144.808594 100.609375 145.140625 99.800781 145.269531 98.839844 L 145.328125 98.449219 C 145.519531 96.835938 145.328125 95.195312 144.714844 93.6875 C 144.128906 92.453125 143.316406 91.539062 142.226562 90.714844 C 140.675781 89.726562 138.824219 89.28125 137.003906 89.121094 C 136.492188 89.101562 135.984375 89.101562 135.472656 89.105469 L 135.023438 89.105469 C 134.535156 89.105469 134.046875 89.105469 133.558594 89.105469 L 132.539062 89.109375 C 131.648438 89.109375 130.757812 89.109375 129.863281 89.109375 C 128.953125 89.113281 128.042969 89.113281 127.132812 89.113281 C 125.347656 89.117188 123.5625 89.117188 121.777344 89.121094 M 259.339844 52.238281 C 260.78125 53 262.085938 53.984375 263.324219 55.039062 L 263.679688 55.335938 C 266.246094 57.546875 268 60.417969 269.125 63.597656 C 269.363281 64.3125 269.546875 65.035156 269.707031 65.769531 L 269.769531 66.058594 C 270.113281 67.6875 270.277344 69.328125 270.285156 70.992188 L 270.140625 71.136719 C 269.691406 71.152344 269.242188 71.15625 268.792969 71.152344 L 268.363281 71.152344 C 267.894531 71.152344 267.425781 71.152344 266.953125 71.152344 L 265.980469 71.152344 C 265.121094 71.152344 264.265625 71.148438 263.410156 71.148438 C 262.535156 71.144531 261.660156 71.144531 260.785156 71.144531 C 259.070312 71.144531 257.355469 71.140625 255.636719 71.136719 C 255.421875 70.703125 255.417969 70.238281 255.367188 69.761719 C 255.175781 68.171875 254.785156 66.835938 253.898438 65.480469 C 252.871094 64.136719 251.691406 63.238281 250.152344 62.542969 C 247.523438 61.46875 244.523438 61.289062 241.714844 61.644531 C 239.683594 61.953125 237.785156 62.570312 236.15625 63.863281 C 235.394531 64.574219 234.871094 65.394531 234.464844 66.351562 C 234.09375 67.554688 234.097656 68.671875 234.335938 69.894531 C 234.527344 70.679688 234.804688 71.253906 235.289062 71.890625 C 235.480469 72.152344 235.480469 72.152344 235.625 72.585938 C 235.894531 72.742188 235.894531 72.742188 236.203125 72.878906 C 236.371094 73 236.53125 73.128906 236.695312 73.257812 C 239.984375 75.734375 244.117188 76.597656 248.035156 77.578125 C 254.03125 79.082031 260.132812 80.886719 265.066406 84.769531 L 265.492188 85.101562 C 266.3125 85.753906 267.027344 86.414062 267.675781 87.234375 L 267.980469 87.609375 C 269.429688 89.441406 270.472656 91.484375 271.011719 93.761719 L 271.082031 94.0625 C 271.75 97.027344 271.757812 100.386719 271.011719 103.335938 L 270.878906 103.871094 C 270.191406 106.449219 269.003906 108.867188 267.242188 110.875 L 266.949219 111.230469 C 264.738281 113.835938 261.566406 115.539062 258.417969 116.757812 C 252.0625 119.027344 244.851562 119.222656 238.253906 118.097656 C 233.621094 117.25 229.367188 115.527344 225.761719 112.472656 L 225.359375 112.132812 C 223.816406 110.78125 222.625 109.277344 221.554688 107.539062 L 221.398438 107.285156 C 219.691406 104.492188 218.785156 101.078125 218.65625 97.824219 C 218.644531 97.242188 218.644531 96.664062 218.65625 96.082031 C 219.152344 95.832031 219.726562 95.917969 220.277344 95.917969 L 220.695312 95.917969 C 221.152344 95.917969 221.609375 95.917969 222.066406 95.917969 C 222.386719 95.917969 222.703125 95.917969 223.019531 95.917969 C 223.683594 95.917969 224.351562 95.917969 225.015625 95.917969 C 225.871094 95.917969 226.722656 95.917969 227.578125 95.917969 C 228.234375 95.917969 228.890625 95.917969 229.542969 95.917969 C 229.859375 95.917969 230.175781 95.917969 230.488281 95.917969 C 230.929688 95.917969 231.367188 95.917969 231.808594 95.917969 L 232.882812 95.917969 C 233.160156 95.9375 233.160156 95.9375 233.59375 96.082031 L 233.632812 96.519531 C 233.808594 98.324219 234.234375 99.992188 235.230469 101.539062 C 236.320312 103.042969 237.621094 104.117188 239.296875 104.910156 C 241.347656 105.769531 243.433594 106.003906 245.640625 106 L 245.9375 106 C 248.234375 105.992188 250.539062 105.75 252.59375 104.640625 C 253.566406 104.066406 254.417969 103.402344 255.058594 102.464844 C 255.757812 101.171875 255.972656 100.101562 255.957031 98.640625 C 255.886719 97.429688 255.527344 96.421875 254.871094 95.40625 C 253.703125 93.804688 251.984375 92.8125 250.207031 92.003906 C 247.464844 90.816406 244.550781 90.191406 241.652344 89.511719 C 237.714844 88.585938 233.816406 87.5625 230.230469 85.636719 C 229.964844 85.496094 229.695312 85.359375 229.425781 85.226562 C 227.40625 84.21875 225.652344 82.84375 224.023438 81.289062 L 223.753906 81.050781 C 222.082031 79.496094 220.804688 77.195312 220.132812 75.027344 C 220.023438 74.648438 219.917969 74.273438 219.816406 73.894531 L 219.679688 73.40625 C 219.261719 71.828125 219.199219 70.296875 219.199219 68.671875 L 219.199219 68.367188 C 219.203125 66.832031 219.277344 65.378906 219.671875 63.886719 L 219.742188 63.597656 C 220.539062 60.539062 222.191406 57.820312 224.375 55.550781 C 227.203125 52.699219 230.886719 51.082031 234.703125 50.03125 C 242.683594 47.882812 251.917969 48.527344 259.339844 52.238281 " fill-opacity="1" fill-rule="nonzero"/><path fill="#21705e" d="M 195.898438 50.214844 L 196.382812 50.210938 C 196.90625 50.210938 197.429688 50.210938 197.957031 50.210938 L 199.050781 50.207031 C 199.820312 50.207031 200.585938 50.207031 201.351562 50.207031 C 202.234375 50.207031 203.117188 50.207031 204 50.203125 C 204.851562 50.199219 205.703125 50.199219 206.554688 50.199219 C 206.917969 50.199219 207.277344 50.199219 207.640625 50.199219 C 208.144531 50.195312 208.652344 50.199219 209.15625 50.199219 L 209.605469 50.195312 C 210.550781 50.203125 211.394531 50.328125 212.273438 50.6875 C 212.632812 50.96875 212.632812 50.96875 212.863281 51.269531 L 213.105469 51.566406 C 213.320312 51.894531 213.421875 52.183594 213.46875 52.570312 C 213.507812 53.710938 213.191406 54.699219 212.839844 55.773438 C 212.777344 55.96875 212.714844 56.167969 212.652344 56.363281 C 212.488281 56.882812 212.324219 57.398438 212.15625 57.917969 C 211.992188 58.429688 211.828125 58.941406 211.667969 59.457031 C 211.472656 60.0625 211.28125 60.667969 211.085938 61.277344 C 210.652344 62.640625 210.226562 64.007812 209.808594 65.375 C 209.4375 66.574219 209.066406 67.773438 208.691406 68.972656 L 208.605469 69.253906 L 208.152344 70.691406 C 207.804688 71.808594 207.453125 72.925781 207.105469 74.046875 C 206.425781 76.214844 205.753906 78.386719 205.082031 80.558594 C 205.019531 80.773438 204.953125 80.984375 204.882812 81.199219 C 204.707031 81.769531 204.535156 82.339844 204.371094 82.914062 L 204.148438 83.667969 L 204.050781 84.019531 C 203.886719 84.5625 203.761719 84.867188 203.359375 85.285156 L 202.992188 85.496094 C 202.464844 85.488281 202.464844 85.488281 201.976562 85.351562 C 201.707031 85.132812 201.5625 84.960938 201.421875 84.644531 L 201.328125 84.332031 L 201.214844 83.976562 L 201.101562 83.589844 L 200.976562 83.183594 C 200.84375 82.75 200.710938 82.3125 200.582031 81.878906 C 200.445312 81.429688 200.304688 80.980469 200.167969 80.53125 L 199.894531 79.632812 C 199.542969 78.480469 199.175781 77.332031 198.804688 76.1875 C 198.417969 74.996094 198.042969 73.804688 197.675781 72.609375 L 197.527344 72.121094 C 197.082031 70.675781 196.636719 69.226562 196.195312 67.78125 L 196.109375 67.492188 L 195.933594 66.917969 L 195.492188 65.472656 C 194.625 62.640625 193.742188 59.8125 192.820312 56.992188 C 192.679688 56.5625 192.542969 56.132812 192.40625 55.699219 L 192.230469 55.179688 C 191.921875 54.203125 191.699219 53.3125 191.824219 52.285156 C 192.015625 51.703125 192.292969 51.351562 192.730469 50.941406 C 193.113281 50.605469 193.488281 50.449219 193.976562 50.3125 C 194.613281 50.191406 195.253906 50.210938 195.902344 50.214844 " fill-opacity="1" fill-rule="nonzero"/><path fill="#e88873" d="M 184.136719 78.96875 C 184.644531 78.898438 184.644531 78.898438 185.152344 78.96875 C 185.457031 79.136719 185.457031 79.136719 185.734375 79.402344 C 185.910156 79.800781 185.910156 79.800781 186.058594 80.296875 L 186.144531 80.574219 C 186.238281 80.886719 186.332031 81.195312 186.421875 81.507812 C 186.492188 81.730469 186.558594 81.957031 186.628906 82.179688 C 186.777344 82.675781 186.929688 83.167969 187.082031 83.664062 C 187.484375 84.992188 187.90625 86.316406 188.320312 87.640625 C 189.109375 90.144531 189.890625 92.652344 190.664062 95.160156 C 191.191406 96.867188 191.722656 98.574219 192.257812 100.277344 L 192.351562 100.585938 C 192.730469 101.796875 193.109375 103.003906 193.488281 104.214844 C 193.636719 104.683594 193.78125 105.152344 193.925781 105.621094 C 194.207031 106.523438 194.492188 107.425781 194.785156 108.324219 L 194.953125 108.839844 C 195.054688 109.160156 195.160156 109.476562 195.269531 109.792969 C 195.523438 110.59375 195.644531 111.230469 195.515625 112.0625 C 195.378906 112.625 195.09375 113.046875 194.726562 113.484375 C 194.300781 113.808594 193.9375 113.960938 193.421875 114.066406 C 193.179688 114.078125 192.933594 114.085938 192.691406 114.085938 L 192.246094 114.089844 L 191.761719 114.09375 L 191.25 114.09375 C 190.6875 114.097656 190.125 114.097656 189.566406 114.101562 L 188.984375 114.101562 C 188.074219 114.105469 187.164062 114.109375 186.257812 114.109375 C 185.207031 114.109375 184.160156 114.113281 183.113281 114.121094 C 182.300781 114.125 181.488281 114.125 180.679688 114.125 C 180.195312 114.128906 179.710938 114.128906 179.226562 114.132812 C 178.6875 114.136719 178.144531 114.136719 177.605469 114.132812 L 177.125 114.140625 C 176.414062 114.136719 175.84375 114.101562 175.199219 113.789062 C 174.785156 113.53125 174.539062 113.375 174.285156 112.96875 L 174.117188 112.714844 C 173.851562 112.222656 173.800781 111.773438 173.808594 111.21875 C 173.875 110.542969 174.101562 109.914062 174.3125 109.269531 C 174.417969 108.933594 174.527344 108.597656 174.632812 108.261719 L 174.722656 107.988281 C 174.957031 107.246094 175.1875 106.503906 175.414062 105.757812 L 175.523438 105.398438 C 175.667969 104.929688 175.8125 104.460938 175.953125 103.992188 C 176.402344 102.523438 176.863281 101.0625 177.339844 99.605469 C 178.105469 97.238281 178.839844 94.863281 179.570312 92.484375 C 179.84375 91.585938 180.121094 90.683594 180.394531 89.785156 L 180.484375 89.492188 C 180.933594 88.03125 181.394531 86.570312 181.863281 85.117188 C 182.128906 84.296875 182.382812 83.476562 182.632812 82.652344 L 182.789062 82.121094 C 182.894531 81.773438 182.996094 81.425781 183.101562 81.078125 L 183.257812 80.558594 L 183.390625 80.105469 C 183.578125 79.640625 183.792969 79.328125 184.136719 78.96875 " fill-opacity="1" fill-rule="nonzero"/><path fill="#38b5fe" d="M 160.617188 50.214844 L 161.085938 50.214844 C 161.597656 50.210938 162.109375 50.214844 162.617188 50.214844 L 163.6875 50.214844 C 164.429688 50.214844 165.175781 50.214844 165.921875 50.214844 C 166.875 50.21875 167.828125 50.214844 168.78125 50.214844 C 169.519531 50.214844 170.253906 50.214844 170.988281 50.214844 C 171.339844 50.214844 171.691406 50.214844 172.042969 50.214844 C 172.535156 50.214844 173.027344 50.214844 173.519531 50.214844 L 173.957031 50.214844 C 175.046875 50.21875 176.105469 50.289062 177.085938 50.796875 C 177.507812 51.160156 177.769531 51.511719 178.046875 51.992188 C 178.230469 52.542969 178.25 53.019531 178.191406 53.589844 C 178.050781 54.195312 177.863281 54.78125 177.671875 55.375 L 177.507812 55.894531 C 177.394531 56.261719 177.277344 56.632812 177.160156 57 C 176.976562 57.570312 176.796875 58.144531 176.613281 58.71875 C 176.433594 59.289062 176.253906 59.863281 176.074219 60.433594 C 175.628906 61.847656 175.191406 63.269531 174.765625 64.691406 C 174.230469 66.46875 173.675781 68.238281 173.105469 70 C 172.570312 71.65625 172.046875 73.3125 171.53125 74.972656 C 171.425781 75.308594 171.320312 75.644531 171.21875 75.980469 C 170.890625 77.027344 170.570312 78.074219 170.253906 79.128906 C 170.058594 79.761719 169.867188 80.394531 169.671875 81.03125 C 169.574219 81.347656 169.480469 81.664062 169.386719 81.980469 C 169.25 82.429688 169.113281 82.878906 168.976562 83.324219 C 168.9375 83.460938 168.898438 83.59375 168.855469 83.734375 C 168.679688 84.304688 168.519531 84.78125 168.105469 85.21875 L 167.75 85.496094 C 167.34375 85.539062 167.34375 85.539062 167.023438 85.496094 C 166.59375 84.582031 166.253906 83.660156 165.957031 82.695312 L 165.824219 82.277344 C 165.460938 81.109375 165.109375 79.941406 164.761719 78.773438 C 163.886719 75.839844 162.925781 72.925781 161.984375 70.011719 L 161.539062 68.636719 L 161.085938 67.238281 C 159.90625 63.59375 159.90625 63.59375 159.429688 61.945312 C 159.140625 60.941406 158.820312 59.949219 158.496094 58.953125 C 158.433594 58.761719 158.371094 58.570312 158.308594 58.375 C 158.003906 57.4375 157.699219 56.503906 157.390625 55.570312 L 157.226562 55.070312 C 157.125 54.761719 157.023438 54.453125 156.921875 54.144531 C 156.496094 52.839844 156.496094 52.839844 156.582031 52.136719 C 156.949219 51.449219 157.398438 50.992188 158.03125 50.542969 C 158.898438 50.222656 159.703125 50.210938 160.617188 50.214844 " fill-opacity="1" fill-rule="nonzero"/><g fill="#c3ddcd" fill-opacity="1"><g transform="translate(105.374237, 137.812155)"><g><path d="M 1.390625 0 L 1.390625 -10.734375 L 5.96875 -10.734375 C 6.632812 -10.734375 7.195312 -10.628906 7.65625 -10.421875 C 8.113281 -10.210938 8.457031 -9.914062 8.6875 -9.53125 C 8.925781 -9.144531 9.046875 -8.691406 9.046875 -8.171875 C 9.046875 -7.691406 8.929688 -7.269531 8.703125 -6.90625 C 8.472656 -6.550781 8.140625 -6.265625 7.703125 -6.046875 L 7.703125 -5.890625 C 8.378906 -5.710938 8.898438 -5.390625 9.265625 -4.921875 C 9.628906 -4.460938 9.8125 -3.894531 9.8125 -3.21875 C 9.8125 -2.1875 9.503906 -1.390625 8.890625 -0.828125 C 8.273438 -0.273438 7.359375 0 6.140625 0 Z M 5.53125 -6.453125 C 6.519531 -6.453125 7.015625 -6.894531 7.015625 -7.78125 C 7.015625 -8.238281 6.890625 -8.578125 6.640625 -8.796875 C 6.398438 -9.023438 6.03125 -9.140625 5.53125 -9.140625 L 3.515625 -9.140625 L 3.515625 -6.453125 Z M 5.921875 -1.6875 C 7.085938 -1.6875 7.671875 -2.210938 7.671875 -3.265625 C 7.671875 -4.335938 7.085938 -4.875 5.921875 -4.875 L 3.515625 -4.875 L 3.515625 -1.6875 Z M 5.921875 -1.6875 "/></g></g></g><g fill="#c3ddcd" fill-opacity="1"><g transform="translate(115.860817, 137.812155)"><g><path d="M 8 -3.59375 L 2.796875 -3.59375 C 2.859375 -2.882812 3.054688 -2.367188 3.390625 -2.046875 C 3.734375 -1.734375 4.203125 -1.578125 4.796875 -1.578125 C 5.265625 -1.578125 5.640625 -1.660156 5.921875 -1.828125 C 6.210938 -2.003906 6.445312 -2.269531 6.625 -2.625 L 6.78125 -2.625 L 8.125 -1.75 C 7.863281 -1.1875 7.46875 -0.726562 6.9375 -0.375 C 6.40625 -0.0195312 5.691406 0.15625 4.796875 0.15625 C 3.960938 0.15625 3.238281 0 2.625 -0.3125 C 2.019531 -0.632812 1.550781 -1.109375 1.21875 -1.734375 C 0.894531 -2.367188 0.734375 -3.140625 0.734375 -4.046875 C 0.734375 -4.960938 0.90625 -5.734375 1.25 -6.359375 C 1.59375 -6.992188 2.0625 -7.46875 2.65625 -7.78125 C 3.25 -8.09375 3.914062 -8.25 4.65625 -8.25 C 5.800781 -8.25 6.675781 -7.941406 7.28125 -7.328125 C 7.894531 -6.722656 8.203125 -5.835938 8.203125 -4.671875 C 8.203125 -4.242188 8.1875 -3.910156 8.15625 -3.671875 Z M 6.25 -4.90625 C 6.226562 -5.519531 6.082031 -5.96875 5.8125 -6.25 C 5.550781 -6.53125 5.164062 -6.671875 4.65625 -6.671875 C 3.625 -6.671875 3.019531 -6.082031 2.84375 -4.90625 Z M 6.25 -4.90625 "/></g></g></g><g fill="#c3ddcd" fill-opacity="1"><g transform="translate(124.653417, 137.812155)"><g><path d="M 4 0.15625 C 3.351562 0.15625 2.785156 0 2.296875 -0.3125 C 1.804688 -0.625 1.421875 -1.09375 1.140625 -1.71875 C 0.867188 -2.351562 0.734375 -3.128906 0.734375 -4.046875 C 0.734375 -4.972656 0.875 -5.75 1.15625 -6.375 C 1.4375 -7 1.832031 -7.46875 2.34375 -7.78125 C 2.851562 -8.09375 3.441406 -8.25 4.109375 -8.25 C 4.609375 -8.25 5.039062 -8.160156 5.40625 -7.984375 C 5.78125 -7.816406 6.09375 -7.546875 6.34375 -7.171875 L 6.5 -7.21875 L 6.5 -11.34375 L 8.53125 -11.34375 L 8.53125 0 L 6.5 0 L 6.5 -1.046875 L 6.34375 -1.078125 C 6.125 -0.691406 5.816406 -0.390625 5.421875 -0.171875 C 5.035156 0.046875 4.5625 0.15625 4 0.15625 Z M 4.65625 -1.578125 C 5.226562 -1.578125 5.679688 -1.78125 6.015625 -2.1875 C 6.347656 -2.59375 6.515625 -3.210938 6.515625 -4.046875 C 6.515625 -4.878906 6.347656 -5.5 6.015625 -5.90625 C 5.679688 -6.320312 5.226562 -6.53125 4.65625 -6.53125 C 4.0625 -6.53125 3.601562 -6.328125 3.28125 -5.921875 C 2.96875 -5.523438 2.8125 -4.898438 2.8125 -4.046875 C 2.8125 -3.191406 2.96875 -2.566406 3.28125 -2.171875 C 3.601562 -1.773438 4.0625 -1.578125 4.65625 -1.578125 Z M 4.65625 -1.578125 "/></g></g></g><g fill="#c3ddcd" fill-opacity="1"><g transform="translate(134.348004, 137.812155)"><g><path d="M 1.421875 0 L 1.421875 -6.484375 L 0.265625 -6.484375 L 0.265625 -8.109375 L 1.421875 -8.109375 C 1.335938 -8.441406 1.296875 -8.757812 1.296875 -9.0625 C 1.296875 -9.570312 1.410156 -10.007812 1.640625 -10.375 C 1.878906 -10.738281 2.21875 -11.015625 2.65625 -11.203125 C 3.09375 -11.398438 3.617188 -11.5 4.234375 -11.5 C 5.128906 -11.5 5.796875 -11.34375 6.234375 -11.03125 L 5.75 -9.546875 L 5.59375 -9.515625 C 5.289062 -9.722656 4.90625 -9.828125 4.4375 -9.828125 C 4.0625 -9.828125 3.78125 -9.738281 3.59375 -9.5625 C 3.414062 -9.382812 3.328125 -9.144531 3.328125 -8.84375 C 3.328125 -8.707031 3.335938 -8.582031 3.359375 -8.46875 C 3.378906 -8.363281 3.410156 -8.242188 3.453125 -8.109375 L 5.765625 -8.109375 L 5.765625 -6.484375 L 3.453125 -6.484375 L 3.453125 0 Z M 1.421875 0 "/></g></g></g><g fill="#c3ddcd" fill-opacity="1"><g transform="translate(140.18529, 137.812155)"><g><path d="M 4.703125 0.15625 C 3.910156 0.15625 3.210938 -0.00390625 2.609375 -0.328125 C 2.015625 -0.660156 1.550781 -1.140625 1.21875 -1.765625 C 0.894531 -2.390625 0.734375 -3.148438 0.734375 -4.046875 C 0.734375 -4.929688 0.894531 -5.6875 1.21875 -6.3125 C 1.550781 -6.945312 2.015625 -7.425781 2.609375 -7.75 C 3.210938 -8.082031 3.910156 -8.25 4.703125 -8.25 C 5.492188 -8.25 6.1875 -8.082031 6.78125 -7.75 C 7.382812 -7.425781 7.851562 -6.945312 8.1875 -6.3125 C 8.519531 -5.6875 8.6875 -4.929688 8.6875 -4.046875 C 8.6875 -3.148438 8.519531 -2.390625 8.1875 -1.765625 C 7.851562 -1.140625 7.382812 -0.660156 6.78125 -0.328125 C 6.1875 -0.00390625 5.492188 0.15625 4.703125 0.15625 Z M 4.703125 -1.578125 C 5.960938 -1.578125 6.59375 -2.398438 6.59375 -4.046875 C 6.59375 -4.898438 6.429688 -5.523438 6.109375 -5.921875 C 5.785156 -6.328125 5.316406 -6.53125 4.703125 -6.53125 C 3.441406 -6.53125 2.8125 -5.703125 2.8125 -4.046875 C 2.8125 -2.398438 3.441406 -1.578125 4.703125 -1.578125 Z M 4.703125 -1.578125 "/></g></g></g><g fill="#c3ddcd" fill-opacity="1"><g transform="translate(149.586546, 137.812155)"><g><path d="M 1.171875 0 L 1.171875 -8.09375 L 3.140625 -8.09375 L 3.140625 -6.890625 L 3.296875 -6.859375 C 3.492188 -7.304688 3.75 -7.632812 4.0625 -7.84375 C 4.382812 -8.0625 4.769531 -8.171875 5.21875 -8.171875 C 5.6875 -8.171875 6.039062 -8.09375 6.28125 -7.9375 L 5.9375 -6.1875 L 5.78125 -6.15625 C 5.644531 -6.207031 5.515625 -6.242188 5.390625 -6.265625 C 5.273438 -6.285156 5.128906 -6.296875 4.953125 -6.296875 C 4.378906 -6.296875 3.941406 -6.097656 3.640625 -5.703125 C 3.347656 -5.304688 3.203125 -4.664062 3.203125 -3.78125 L 3.203125 0 Z M 1.171875 0 "/></g></g></g><g fill="#c3ddcd" fill-opacity="1"><g transform="translate(155.929833, 137.812155)"><g><path d="M 4 0.15625 C 3.351562 0.15625 2.785156 0 2.296875 -0.3125 C 1.804688 -0.625 1.421875 -1.09375 1.140625 -1.71875 C 0.867188 -2.351562 0.734375 -3.128906 0.734375 -4.046875 C 0.734375 -4.972656 0.875 -5.75 1.15625 -6.375 C 1.4375 -7 1.832031 -7.46875 2.34375 -7.78125 C 2.851562 -8.09375 3.441406 -8.25 4.109375 -8.25 C 4.609375 -8.25 5.039062 -8.160156 5.40625 -7.984375 C 5.78125 -7.816406 6.09375 -7.546875 6.34375 -7.171875 L 6.5 -7.21875 L 6.5 -11.34375 L 8.53125 -11.34375 L 8.53125 0 L 6.5 0 L 6.5 -1.046875 L 6.34375 -1.078125 C 6.125 -0.691406 5.816406 -0.390625 5.421875 -0.171875 C 5.035156 0.046875 4.5625 0.15625 4 0.15625 Z M 4.65625 -1.578125 C 5.226562 -1.578125 5.679688 -1.78125 6.015625 -2.1875 C 6.347656 -2.59375 6.515625 -3.210938 6.515625 -4.046875 C 6.515625 -4.878906 6.347656 -5.5 6.015625 -5.90625 C 5.679688 -6.320312 5.226562 -6.53125 4.65625 -6.53125 C 4.0625 -6.53125 3.601562 -6.328125 3.28125 -5.921875 C 2.96875 -5.523438 2.8125 -4.898438 2.8125 -4.046875 C 2.8125 -3.191406 2.96875 -2.566406 3.28125 -2.171875 C 3.601562 -1.773438 4.0625 -1.578125 4.65625 -1.578125 Z M 4.65625 -1.578125 "/></g></g></g><g fill="#c3ddcd" fill-opacity="1"><g transform="translate(165.62442, 137.812155)"><g/></g></g><g fill="#c3ddcd" fill-opacity="1"><g transform="translate(169.166396, 137.812155)"><g><path d="M 5.125 0 L 2.75 0 L 0.296875 -10.734375 L 2.40625 -10.734375 L 4.03125 -3.1875 L 4.21875 -3.1875 L 6.140625 -10.734375 L 7.953125 -10.734375 L 9.90625 -3.1875 L 10.09375 -3.1875 L 11.71875 -10.734375 L 13.765625 -10.734375 L 11.3125 0 L 8.9375 0 L 7.046875 -6.921875 L 6.90625 -6.921875 Z M 5.125 0 "/></g></g></g><g fill="#c3ddcd" fill-opacity="1"><g transform="translate(183.202281, 137.812155)"><g><path d="M 8 -3.59375 L 2.796875 -3.59375 C 2.859375 -2.882812 3.054688 -2.367188 3.390625 -2.046875 C 3.734375 -1.734375 4.203125 -1.578125 4.796875 -1.578125 C 5.265625 -1.578125 5.640625 -1.660156 5.921875 -1.828125 C 6.210938 -2.003906 6.445312 -2.269531 6.625 -2.625 L 6.78125 -2.625 L 8.125 -1.75 C 7.863281 -1.1875 7.46875 -0.726562 6.9375 -0.375 C 6.40625 -0.0195312 5.691406 0.15625 4.796875 0.15625 C 3.960938 0.15625 3.238281 0 2.625 -0.3125 C 2.019531 -0.632812 1.550781 -1.109375 1.21875 -1.734375 C 0.894531 -2.367188 0.734375 -3.140625 0.734375 -4.046875 C 0.734375 -4.960938 0.90625 -5.734375 1.25 -6.359375 C 1.59375 -6.992188 2.0625 -7.46875 2.65625 -7.78125 C 3.25 -8.09375 3.914062 -8.25 4.65625 -8.25 C 5.800781 -8.25 6.675781 -7.941406 7.28125 -7.328125 C 7.894531 -6.722656 8.203125 -5.835938 8.203125 -4.671875 C 8.203125 -4.242188 8.1875 -3.910156 8.15625 -3.671875 Z M 6.25 -4.90625 C 6.226562 -5.519531 6.082031 -5.96875 5.8125 -6.25 C 5.550781 -6.53125 5.164062 -6.671875 4.65625 -6.671875 C 3.625 -6.671875 3.019531 -6.082031 2.84375 -4.90625 Z M 6.25 -4.90625 "/></g></g></g><g fill="#c3ddcd" fill-opacity="1"><g transform="translate(191.994881, 137.812155)"><g><path d="M 5.65625 0.15625 C 4.625 0.15625 3.859375 -0.226562 3.359375 -1 L 3.203125 -0.96875 L 3.203125 0 L 1.171875 0 L 1.171875 -11.34375 L 3.203125 -11.34375 L 3.203125 -7.140625 L 3.359375 -7.109375 C 3.628906 -7.492188 3.953125 -7.78125 4.328125 -7.96875 C 4.710938 -8.15625 5.171875 -8.25 5.703125 -8.25 C 6.359375 -8.25 6.929688 -8.09375 7.421875 -7.78125 C 7.910156 -7.476562 8.289062 -7.007812 8.5625 -6.375 C 8.832031 -5.75 8.96875 -4.972656 8.96875 -4.046875 C 8.96875 -3.128906 8.828125 -2.351562 8.546875 -1.71875 C 8.265625 -1.09375 7.875 -0.625 7.375 -0.3125 C 6.875 0 6.300781 0.15625 5.65625 0.15625 Z M 5.046875 -1.578125 C 5.640625 -1.578125 6.09375 -1.773438 6.40625 -2.171875 C 6.71875 -2.566406 6.875 -3.191406 6.875 -4.046875 C 6.875 -4.898438 6.71875 -5.523438 6.40625 -5.921875 C 6.09375 -6.328125 5.640625 -6.53125 5.046875 -6.53125 C 4.472656 -6.53125 4.015625 -6.320312 3.671875 -5.90625 C 3.335938 -5.5 3.171875 -4.878906 3.171875 -4.046875 C 3.171875 -3.210938 3.335938 -2.59375 3.671875 -2.1875 C 4.015625 -1.78125 4.472656 -1.578125 5.046875 -1.578125 Z M 5.046875 -1.578125 "/></g></g></g><g fill="#c3ddcd" fill-opacity="1"><g transform="translate(201.682141, 137.812155)"><g/></g></g><g fill="#c3ddcd" fill-opacity="1"><g transform="translate(205.224117, 137.812155)"><g><path d="M 4.75 0.15625 C 4.007812 0.15625 3.347656 0.0664062 2.765625 -0.109375 C 2.191406 -0.296875 1.707031 -0.539062 1.3125 -0.84375 C 0.925781 -1.144531 0.632812 -1.472656 0.4375 -1.828125 L 1.59375 -3.25 L 1.78125 -3.25 C 2.101562 -2.769531 2.515625 -2.390625 3.015625 -2.109375 C 3.515625 -1.828125 4.09375 -1.6875 4.75 -1.6875 C 5.320312 -1.6875 5.75 -1.804688 6.03125 -2.046875 C 6.320312 -2.285156 6.46875 -2.613281 6.46875 -3.03125 C 6.46875 -3.28125 6.421875 -3.488281 6.328125 -3.65625 C 6.234375 -3.832031 6.078125 -3.984375 5.859375 -4.109375 C 5.648438 -4.234375 5.363281 -4.335938 5 -4.421875 L 3.625 -4.734375 C 2.65625 -4.960938 1.929688 -5.332031 1.453125 -5.84375 C 0.984375 -6.351562 0.75 -7.015625 0.75 -7.828125 C 0.75 -8.429688 0.898438 -8.960938 1.203125 -9.421875 C 1.515625 -9.890625 1.957031 -10.25 2.53125 -10.5 C 3.113281 -10.757812 3.804688 -10.890625 4.609375 -10.890625 C 5.441406 -10.890625 6.148438 -10.78125 6.734375 -10.5625 C 7.328125 -10.34375 7.828125 -10.007812 8.234375 -9.5625 L 7.1875 -8.125 L 7 -8.125 C 6.695312 -8.4375 6.347656 -8.671875 5.953125 -8.828125 C 5.566406 -8.992188 5.117188 -9.078125 4.609375 -9.078125 C 4.035156 -9.078125 3.59375 -8.972656 3.28125 -8.765625 C 2.976562 -8.554688 2.828125 -8.269531 2.828125 -7.90625 C 2.828125 -7.570312 2.929688 -7.300781 3.140625 -7.09375 C 3.359375 -6.894531 3.726562 -6.742188 4.25 -6.640625 L 5.671875 -6.34375 C 6.710938 -6.125 7.46875 -5.75 7.9375 -5.21875 C 8.40625 -4.695312 8.640625 -4.007812 8.640625 -3.15625 C 8.640625 -2.488281 8.492188 -1.90625 8.203125 -1.40625 C 7.910156 -0.914062 7.472656 -0.53125 6.890625 -0.25 C 6.316406 0.0195312 5.601562 0.15625 4.75 0.15625 Z M 4.75 0.15625 "/></g></g></g><g fill="#c3ddcd" fill-opacity="1"><g transform="translate(214.434708, 137.812155)"><g><path d="M 8 -3.59375 L 2.796875 -3.59375 C 2.859375 -2.882812 3.054688 -2.367188 3.390625 -2.046875 C 3.734375 -1.734375 4.203125 -1.578125 4.796875 -1.578125 C 5.265625 -1.578125 5.640625 -1.660156 5.921875 -1.828125 C 6.210938 -2.003906 6.445312 -2.269531 6.625 -2.625 L 6.78125 -2.625 L 8.125 -1.75 C 7.863281 -1.1875 7.46875 -0.726562 6.9375 -0.375 C 6.40625 -0.0195312 5.691406 0.15625 4.796875 0.15625 C 3.960938 0.15625 3.238281 0 2.625 -0.3125 C 2.019531 -0.632812 1.550781 -1.109375 1.21875 -1.734375 C 0.894531 -2.367188 0.734375 -3.140625 0.734375 -4.046875 C 0.734375 -4.960938 0.90625 -5.734375 1.25 -6.359375 C 1.59375 -6.992188 2.0625 -7.46875 2.65625 -7.78125 C 3.25 -8.09375 3.914062 -8.25 4.65625 -8.25 C 5.800781 -8.25 6.675781 -7.941406 7.28125 -7.328125 C 7.894531 -6.722656 8.203125 -5.835938 8.203125 -4.671875 C 8.203125 -4.242188 8.1875 -3.910156 8.15625 -3.671875 Z M 6.25 -4.90625 C 6.226562 -5.519531 6.082031 -5.96875 5.8125 -6.25 C 5.550781 -6.53125 5.164062 -6.671875 4.65625 -6.671875 C 3.625 -6.671875 3.019531 -6.082031 2.84375 -4.90625 Z M 6.25 -4.90625 "/></g></g></g><g fill="#c3ddcd" fill-opacity="1"><g transform="translate(223.227308, 137.812155)"><g><path d="M 1.171875 0 L 1.171875 -8.09375 L 3.140625 -8.09375 L 3.140625 -6.890625 L 3.296875 -6.859375 C 3.492188 -7.304688 3.75 -7.632812 4.0625 -7.84375 C 4.382812 -8.0625 4.769531 -8.171875 5.21875 -8.171875 C 5.6875 -8.171875 6.039062 -8.09375 6.28125 -7.9375 L 5.9375 -6.1875 L 5.78125 -6.15625 C 5.644531 -6.207031 5.515625 -6.242188 5.390625 -6.265625 C 5.273438 -6.285156 5.128906 -6.296875 4.953125 -6.296875 C 4.378906 -6.296875 3.941406 -6.097656 3.640625 -5.703125 C 3.347656 -5.304688 3.203125 -4.664062 3.203125 -3.78125 L 3.203125 0 Z M 1.171875 0 "/></g></g></g><g fill="#c3ddcd" fill-opacity="1"><g transform="translate(229.570595, 137.812155)"><g><path d="M 5.578125 0 L 3.15625 0 L 0.15625 -8.09375 L 2.28125 -8.09375 L 4.296875 -2.328125 L 4.46875 -2.328125 L 6.484375 -8.09375 L 8.5625 -8.09375 Z M 5.578125 0 "/></g></g></g><g fill="#c3ddcd" fill-opacity="1"><g transform="translate(238.267857, 137.812155)"><g><path d="M 2.1875 -9.0625 C 1.8125 -9.0625 1.507812 -9.171875 1.28125 -9.390625 C 1.050781 -9.617188 0.9375 -9.910156 0.9375 -10.265625 C 0.9375 -10.609375 1.050781 -10.890625 1.28125 -11.109375 C 1.507812 -11.335938 1.8125 -11.453125 2.1875 -11.453125 C 2.425781 -11.453125 2.640625 -11.398438 2.828125 -11.296875 C 3.023438 -11.191406 3.175781 -11.050781 3.28125 -10.875 C 3.382812 -10.695312 3.4375 -10.492188 3.4375 -10.265625 C 3.4375 -10.035156 3.382812 -9.828125 3.28125 -9.640625 C 3.175781 -9.460938 3.023438 -9.320312 2.828125 -9.21875 C 2.640625 -9.113281 2.425781 -9.0625 2.1875 -9.0625 Z M 1.171875 0 L 1.171875 -8.09375 L 3.203125 -8.09375 L 3.203125 0 Z M 1.171875 0 "/></g></g></g><g fill="#c3ddcd" fill-opacity="1"><g transform="translate(242.623821, 137.812155)"><g><path d="M 4.71875 0.15625 C 3.9375 0.15625 3.242188 -0.00390625 2.640625 -0.328125 C 2.035156 -0.660156 1.566406 -1.140625 1.234375 -1.765625 C 0.898438 -2.398438 0.734375 -3.160156 0.734375 -4.046875 C 0.734375 -4.929688 0.898438 -5.6875 1.234375 -6.3125 C 1.566406 -6.945312 2.03125 -7.425781 2.625 -7.75 C 3.226562 -8.082031 3.914062 -8.25 4.6875 -8.25 C 6.394531 -8.25 7.488281 -7.628906 7.96875 -6.390625 L 6.5625 -5.390625 L 6.421875 -5.390625 C 6.253906 -5.773438 6.035156 -6.0625 5.765625 -6.25 C 5.492188 -6.4375 5.132812 -6.53125 4.6875 -6.53125 C 4.09375 -6.53125 3.628906 -6.328125 3.296875 -5.921875 C 2.972656 -5.515625 2.8125 -4.890625 2.8125 -4.046875 C 2.8125 -3.210938 2.976562 -2.59375 3.3125 -2.1875 C 3.644531 -1.78125 4.113281 -1.578125 4.71875 -1.578125 C 5.15625 -1.578125 5.523438 -1.691406 5.828125 -1.921875 C 6.140625 -2.160156 6.363281 -2.503906 6.5 -2.953125 L 6.65625 -2.96875 L 8.09375 -2.171875 C 7.882812 -1.484375 7.503906 -0.921875 6.953125 -0.484375 C 6.398438 -0.0546875 5.65625 0.15625 4.71875 0.15625 Z M 4.71875 0.15625 "/></g></g></g><g fill="#c3ddcd" fill-opacity="1"><g transform="translate(250.961759, 137.812155)"><g><path d="M 8 -3.59375 L 2.796875 -3.59375 C 2.859375 -2.882812 3.054688 -2.367188 3.390625 -2.046875 C 3.734375 -1.734375 4.203125 -1.578125 4.796875 -1.578125 C 5.265625 -1.578125 5.640625 -1.660156 5.921875 -1.828125 C 6.210938 -2.003906 6.445312 -2.269531 6.625 -2.625 L 6.78125 -2.625 L 8.125 -1.75 C 7.863281 -1.1875 7.46875 -0.726562 6.9375 -0.375 C 6.40625 -0.0195312 5.691406 0.15625 4.796875 0.15625 C 3.960938 0.15625 3.238281 0 2.625 -0.3125 C 2.019531 -0.632812 1.550781 -1.109375 1.21875 -1.734375 C 0.894531 -2.367188 0.734375 -3.140625 0.734375 -4.046875 C 0.734375 -4.960938 0.90625 -5.734375 1.25 -6.359375 C 1.59375 -6.992188 2.0625 -7.46875 2.65625 -7.78125 C 3.25 -8.09375 3.914062 -8.25 4.65625 -8.25 C 5.800781 -8.25 6.675781 -7.941406 7.28125 -7.328125 C 7.894531 -6.722656 8.203125 -5.835938 8.203125 -4.671875 C 8.203125 -4.242188 8.1875 -3.910156 8.15625 -3.671875 Z M 6.25 -4.90625 C 6.226562 -5.519531 6.082031 -5.96875 5.8125 -6.25 C 5.550781 -6.53125 5.164062 -6.671875 4.65625 -6.671875 C 3.625 -6.671875 3.019531 -6.082031 2.84375 -4.90625 Z M 6.25 -4.90625 "/></g></g></g><g fill="#c3ddcd" fill-opacity="1"><g transform="translate(259.754359, 137.812155)"><g><path d="M 3.78125 0.15625 C 3.226562 0.15625 2.722656 0.09375 2.265625 -0.03125 C 1.804688 -0.164062 1.414062 -0.347656 1.09375 -0.578125 C 0.769531 -0.804688 0.523438 -1.066406 0.359375 -1.359375 L 1.5 -2.578125 L 1.65625 -2.578125 C 1.925781 -2.210938 2.242188 -1.9375 2.609375 -1.75 C 2.972656 -1.570312 3.367188 -1.484375 3.796875 -1.484375 C 4.191406 -1.484375 4.488281 -1.554688 4.6875 -1.703125 C 4.894531 -1.847656 5 -2.050781 5 -2.3125 C 5 -2.519531 4.925781 -2.691406 4.78125 -2.828125 C 4.632812 -2.960938 4.398438 -3.070312 4.078125 -3.15625 L 3.015625 -3.40625 C 2.210938 -3.601562 1.625 -3.894531 1.25 -4.28125 C 0.882812 -4.675781 0.703125 -5.179688 0.703125 -5.796875 C 0.703125 -6.296875 0.828125 -6.726562 1.078125 -7.09375 C 1.335938 -7.46875 1.703125 -7.753906 2.171875 -7.953125 C 2.640625 -8.148438 3.179688 -8.25 3.796875 -8.25 C 4.523438 -8.25 5.128906 -8.144531 5.609375 -7.9375 C 6.085938 -7.726562 6.460938 -7.445312 6.734375 -7.09375 L 5.65625 -5.921875 L 5.5 -5.921875 C 5.28125 -6.171875 5.03125 -6.351562 4.75 -6.46875 C 4.46875 -6.59375 4.148438 -6.65625 3.796875 -6.65625 C 2.992188 -6.65625 2.59375 -6.40625 2.59375 -5.90625 C 2.59375 -5.6875 2.664062 -5.507812 2.8125 -5.375 C 2.96875 -5.25 3.234375 -5.144531 3.609375 -5.0625 L 4.609375 -4.84375 C 5.429688 -4.664062 6.03125 -4.378906 6.40625 -3.984375 C 6.789062 -3.597656 6.984375 -3.078125 6.984375 -2.421875 C 6.984375 -1.910156 6.851562 -1.457031 6.59375 -1.0625 C 6.34375 -0.675781 5.976562 -0.375 5.5 -0.15625 C 5.019531 0.0507812 4.445312 0.15625 3.78125 0.15625 Z M 3.78125 0.15625 "/></g></g></g></svg>